#!OML:ASF H:\Terrain\Patient Classification 1\Walking\steve\steve.ASF
:FULLY-SPECIFIED
:DEGREES
221
root 8.37864 16.2855 12.3769 10.9019 -9.42826 -8.84886
lowerback 0.65597 6.24822 10.1044
upperback -3.57111 8.63663 0.833421
thorax -2.76506 4.04786 -4.87421
lowerneck -9.89643 -1.64476 -2.86885
upperneck 11.7111 -2.29513 3.85042
head 5.22585 -0.986818 1.49998
rclavicle -5.26345e-014 -2.04935e-014
rhumerus -14.1472 10.9435 -81.887
rradius 66.9201
rwrist -12.4032
rhand -24.4972 -32.8992
rfingers 7.12502
rthumb 1.9972 -62.8696
lclavicle -5.26345e-014 -2.04935e-014
lhumerus -62.6187 17.3239 57.9229
lradius 3.01413
lwrist -16.2488
lhand -25.9087 -12.1684
lfingers 7.12502
lthumb 0.633887 17.8104
rfemur 8.99128 -2.59611 28.9191
rtibia 12.082
rfoot 2.03007 23.6062
rtoes 12.8359
lfemur -42.494 2.68793 -9.18567
ltibia 18.048
lfoot -19.3592 8.20028
ltoes -18.4138
222
root 8.38019 16.2465 12.6661 10.6439 -9.70237 -8.40271
lowerback 0.651306 6.28796 9.24086
upperback -3.46598 8.65921 0.743406
thorax -2.74884 4.08667 -4.49933
lowerneck -10.0178 -1.65602 -3.0168
upperneck 11.6208 -2.34005 4.28066
head 5.22668 -0.985298 1.65456
rclavicle -6.6158e-014 -2.29224e-014
rhumerus -14.0122 11.1147 -81.586
rradius 68.0914
rwrist -12.551
rhand -23.2184 -33.4942
rfingers 7.12502
rthumb 3.23222 -63.4494
lclavicle -6.6158e-014 -2.29224e-014
lhumerus -63.3584 17.0624 57.549
lradius 3.11097
lwrist -14.9726
lhand -25.827 -10.8051
lfingers 7.12502
lthumb 0.712819 19.1735
rfemur 10.251 -1.55222 28.3265
rtibia 11.8945
rfoot 3.31667 22.5758
rtoes 14.9937
lfemur -42.3125 3.19716 -10.1927
ltibia 18.3476
lfoot -18.311 6.76228
ltoes -18.1001
223
root 8.37983 16.2034 12.9567 10.3182 -10.0856 -7.82227
lowerback 0.805102 6.37151 8.23789
upperback -3.4814 8.75997 0.588745
thorax -2.9496 4.15359 -4.14474
lowerneck -10.0947 -1.7721 -2.88786
upperneck 11.7201 -2.52381 4.3174
head 5.27653 -1.06522 1.63065
rclavicle 6.09803e-014 4.08006e-014
rhumerus -14.515 11.143 -81.4182
rradius 69.4
rwrist -12.7966
rhand -23.2102 -34.4455
rfingers 7.12502
rthumb 3.24014 -64.4006
lclavicle 6.09803e-014 4.08006e-014
lhumerus -64.0922 16.7028 57.1767
lradius 2.93119
lwrist -13.5891
lhand -26.372 -10.1257
lfingers 7.12502
lthumb 0.186453 19.8539
rfemur 11.4147 -0.422159 27.589
rtibia 12.1237
rfoot 4.3912 21.6812
rtoes 16.0287
lfemur -42.037 3.17248 -10.9876
ltibia 19.1059
lfoot -17.5007 5.69444
ltoes -16.4026
224
root 8.38522 16.1602 13.2558 10.1228 -10.2432 -7.65762
lowerback 0.792028 6.3546 7.8789
upperback -3.52195 8.72556 0.456639
thorax -3.01758 4.14129 -4.09066
lowerneck -10.1899 -1.81645 -2.61919
upperneck 11.7832 -2.63238 4.36132
head 5.31363 -1.10159 1.59154
rclavicle 1.70054e-014 -5.36719e-015
rhumerus -15.0461 11.0916 -81.5356
rradius 70.3065
rwrist -13.1717
rhand -16.9187 -36.6398
rfingers 7.12502
rthumb 9.31376 -66.4141
lclavicle 1.70054e-014 -5.36719e-015
lhumerus -64.8479 16.458 56.6041
lradius 2.89691
lwrist -12.475
lhand -26.7141 -9.95995
lfingers 7.12502
lthumb -0.143959 20.0197
rfemur 12.521 0.452286 27.3223
rtibia 12.564
rfoot 4.67814 20.8143
rtoes 12.5946
lfemur -42.0129 3.2017 -11.515
ltibia 20.4109
lfoot -16.8386 3.9485
ltoes -15.4551
225
root 8.39159 16.1228 13.5694 10.0377 -10.2898 -7.55811
lowerback 0.413547 6.32629 7.57388
upperback -3.50015 8.64023 0.363586
thorax -2.81972 4.11595 -3.97428
lowerneck -10.3947 -1.79759 -2.76117
upperneck 11.8893 -2.65771 4.89232
head 5.39144 -1.07983 1.77827
rclavicle 1.08661e-013 3.39922e-014
rhumerus -15.5049 11.0487 -81.6612
rradius 70.9681
rwrist -13.8537
rhand -24.6679 -34.3742
rfingers 7.12502
rthumb 1.8323 -64.3461
lclavicle 1.08661e-013 3.39922e-014
lhumerus -65.5785 16.3017 56.1003
lradius 3.04579
lwrist -11.6924
lhand -26.5853 -9.63708
lfingers 7.12502
lthumb -0.0196014 20.3427
rfemur 13.2841 1.16705 27.1182
rtibia 13.32
rfoot 6.13019 19.6512
rtoes 12.8193
lfemur -42.1442 3.66994 -12.3553
ltibia 22.1449
lfoot -13.3698 4.37063
ltoes -10.5016
226
root 8.3954 16.1076 13.8917 9.9309 -10.2597 -7.23136
lowerback -0.0293265 6.28279 6.96411
upperback -3.54922 8.53004 0.250294
thorax -2.70065 4.08073 -3.71463
lowerneck -10.0046 -1.73053 -3.13564
upperneck 11.6501 -2.61292 5.68241
head 5.26438 -1.02856 2.09269
rclavicle -4.61243e-014 -3.37934e-015
rhumerus -16.5734 10.9424 -81.7793
rradius 72.0205
rwrist -14.3352
rhand -25.9285 -32.9576
rfingers 7.12502
rthumb 0.614782 -62.9365
lclavicle -4.61243e-014 -3.37934e-015
lhumerus -66.4576 15.984 55.6032
lradius 3.33777
lwrist -11.0405
lhand -26.2733 -9.01306
lfingers 7.12502
lthumb 0.281829 20.9665
rfemur 13.5932 1.94954 26.7341
rtibia 14.7577
rfoot 8.09038 18.2623
rtoes 16.1984
lfemur -42.3146 3.81825 -13.1529
ltibia 24.1236
lfoot -10.1525 5.3316
ltoes -5.33585
227
root 8.40236 16.1124 14.2021 9.78738 -9.9309 -6.68472
lowerback -0.308273 6.11176 6.28984
upperback -3.57634 8.26405 0.013523
thorax -2.65542 3.965 -3.56698
lowerneck -9.80736 -1.75686 -3.09121
upperneck 11.3937 -2.69712 6.05552
head 5.16021 -1.04893 2.19606
rclavicle 1.92883e-014 3.18055e-015
rhumerus -17.5401 10.607 -82.0355
rradius 73.0398
rwrist -14.6956
rhand -24.0353 -32.2231
rfingers 7.12502
rthumb 2.44323 -62.1889
lclavicle 1.92883e-014 3.18055e-015
lhumerus -67.0837 15.7203 55.0528
lradius 3.6716
lwrist -10.7067
lhand -25.7252 -8.34608
lfingers 7.12502
lthumb 0.811143 21.6321
rfemur 13.4507 2.65544 26.271
rtibia 16.9031
rfoot 9.72581 16.5369
rtoes 16.1674
lfemur -42.7 3.46608 -13.8761
ltibia 26.3143
lfoot -7.4891 6.0564
ltoes -4.63403
228
root 8.41125 16.1086 14.4911 9.71716 -9.34879 -6.0533
lowerback -0.426568 5.88215 5.61939
upperback -3.56573 7.93199 -0.31038
thorax -2.65136 3.814 -3.52627
lowerneck -10.2068 -1.97594 -2.78046
upperneck 11.3655 -3.04153 6.109
head 5.2326 -1.19381 2.13308
rclavicle 2.07854e-014 -1.98785e-015
rhumerus -17.9926 9.9953 -82.4791
rradius 73.5029
rwrist -15.5699
rhand -23.3134 -32.3233
rfingers 7.12502
rthumb 3.14042 -62.2799
lclavicle 2.07854e-014 -1.98785e-015
lhumerus -67.003 15.7009 54.6729
lradius 3.46834
lwrist -10.7223
lhand -25.4854 -8.00096
lfingers 7.12502
lthumb 1.04277 21.9762
rfemur 12.7392 3.41454 25.9386
rtibia 19.7159
rfoot 10.8019 14.4714
rtoes 12.2732
lfemur -43.2523 2.67526 -14.5271
ltibia 28.5152
lfoot -6.12748 6.46551
ltoes -4.17697
229
root 8.4172 16.0836 14.7709 9.65966 -8.78961 -5.59569
lowerback -0.400245 5.65412 5.0624
upperback -3.60657 7.61788 -0.532644
thorax -2.77723 3.66463 -3.46142
lowerneck -10.4313 -2.14611 -2.87557
upperneck 11.2349 -3.30147 6.51203
head 5.25113 -1.2956 2.25304
rclavicle -1.54928e-014 -9.93923e-015
rhumerus -18.8017 9.24506 -83.0113
rradius 73.889
rwrist -16.357
rhand -23.3713 -33.3464
rfingers 7.12502
rthumb 3.08449 -63.3039
lclavicle -1.54928e-014 -9.93923e-015
lhumerus -66.8731 15.8386 54.4004
lradius 3.15457
lwrist -10.9439
lhand -25.559 -7.83559
lfingers 7.12502
lthumb 0.971676 22.1419
rfemur 11.5321 3.92665 25.734
rtibia 23.2885
rfoot 12.2929 11.8946
rtoes 10.6766
lfemur -43.6655 2.23153 -15.2109
ltibia 30.538
lfoot -5.47858 6.67258
ltoes -3.26519
230
root 8.42312 16.0719 15.0647 9.39569 -8.51765 -4.706
lowerback -0.574858 5.43237 4.04942
upperback -3.49906 7.28988 -0.783325
thorax -2.68471 3.52907 -3.14446
lowerneck -10.7444 -2.17547 -3.09043
upperneck 11.3179 -3.358 6.88957
head 5.34302 -1.2995 2.40077
rclavicle 9.5516e-014 -3.97569e-015
rhumerus -20.2052 8.59207 -83.4941
rradius 74.5782
rwrist -16.6831
rhand -22.8892 -33.6473
rfingers 7.12502
rthumb 3.55006 -63.5975
lclavicle 9.5516e-014 -3.97569e-015
lhumerus -66.9384 16.1627 54.0905
lradius 3.23566
lwrist -11.624
lhand -25.0501 -7.25853
lfingers 7.12502
lthumb 1.46314 22.7162
rfemur 10.0475 3.96906 24.7399
rtibia 27.4139
rfoot 14.7851 8.82387
rtoes 11.5196
lfemur -43.6108 2.33155 -16.6712
ltibia 32.408
lfoot -4.77297 5.82996
ltoes -4.84289
